<svg width="227" height="48" viewBox="0 0 227 48" fill="none" xmlns="http://www.w3.org/2000/svg">
    <path d="M2.37587 10.3512C21.3287 6.3088 44.5212 4.25846 63.0842 10.1198C67.7859 11.6044 71.8254 13.8585 74.8265 16.5115M74.8265 16.5115C79.3973 20.5524 81.559 25.519 79.9823 30.1027C77.5156 37.2739 69.714 43.9435 56.141 44.6442C49.0662 45.0093 42.6093 43.5623 40.4695 39.4228C37.2005 33.0986 47.1718 25.6801 55.6066 22.2841C61.4385 19.9361 67.934 18.0045 74.8265 16.5115ZM220.709 13.228C202.079 8.72641 179.063 6.1114 160.074 11.5139C155.265 12.8823 151.058 15.0355 147.86 17.6129M147.86 17.6129C142.987 21.5383 140.452 26.4475 141.681 31.0655C143.603 38.2904 150.893 45.1444 164.401 46.1759C171.442 46.7136 178.002 45.4256 180.453 41.3423C184.197 35.1038 174.795 27.4485 166.625 23.8496C160.976 21.3613 154.633 19.2728 147.86 17.6129ZM147.86 17.6129C124.06 11.7803 97.4995 10.4663 74.5855 16.4632" stroke="#F9F9F9" stroke-width="2.84444" stroke-linecap="round"/>
    <path d="M209.81 1.76392C213.492 4.26441 221.611 10.167 224.632 13.7732" stroke="#F9F9F9" stroke-width="2.84444" stroke-linecap="round"/>
    <path d="M224.636 13.7756C219.351 15.043 207.384 18.1834 201.797 20.6058" stroke="#F9F9F9" stroke-width="2.84444" stroke-linecap="round"/>
</svg>
